<svg width="150" height="150" viewBox="0 0 150 150" fill="none" xmlns="http://www.w3.org/2000/svg">
<path fill-rule="evenodd" clip-rule="evenodd" d="M75 0.003C33.58 0.003 0 33.583 0 75.003C0 116.397 33.606 150.003 75 150.003C116.421 150.003 150 116.424 150 75.003H112.461C112.461 95.693 95.69 112.464 75.001 112.464C54.324 112.464 37.539 95.679 37.539 75.004C37.539 54.314 54.311 37.542 75 37.542V0.003Z" fill="black"/>
<path fill-rule="evenodd" clip-rule="evenodd" d="M149.991 0H86.831V21.055C86.8312 26.5852 87.9209 32.0612 90.0381 37.1701C92.1553 42.279 95.2583 46.9207 99.17 50.83C103.078 54.7398 107.719 57.8413 112.826 59.9575C117.933 62.0736 123.408 63.1628 128.936 63.163H149.992L149.991 0Z" fill="black"/>
</svg>
